Coordinates
version=1
nRows=13
nColumns=36
inDegrees=yes

Units are S.I. units (second, meters, Newtons, ...)
If the header above contains a line with 'inDegrees', this indicates whether rotational values are in degrees (yes) or radians (no).

endheader
time	pelvis_tilt	pelvis_list	pelvis_rotation	pelvis_tx	pelvis_ty	pelvis_tz	hip_flexion_r	hip_adduction_r	hip_rotation_r	knee_angle_r	knee_angle_r_beta	ankle_angle_r	subtalar_angle_r	mtp_angle_r	hip_flexion_l	hip_adduction_l	hip_rotation_l	knee_angle_l	knee_angle_l_beta	ankle_angle_l	subtalar_angle_l	mtp_angle_l	lumbar_extension	lumbar_bending	lumbar_rotation	arm_flex_r	arm_add_r	arm_rot_r	elbow_flex_r	pro_sup_r	arm_flex_l	arm_add_l	arm_rot_l	elbow_flex_l	pro_sup_l
      4.50000000	    -12.13993064	     -2.29166440	     -0.63172443	      0.70035171	      0.88758076	      0.01181833	     47.03876406	      1.17646162	      6.36860954	     56.54832146	      0.98695440	     29.93140382	    -12.60575035	     -7.49999987	     49.68228591	     -3.46767869	      3.23024581	     61.56387707	      1.07449236	     23.80257383	    -19.72126058	     -7.49999987	     -6.96513903	      3.54089027	     -1.09152186	     43.57270773	    -15.85673874	     20.08712294	     95.54444563	     88.98206650	     42.04886928	    -21.48843408	     21.99523033	    100.49359661	     83.17551021
      4.51666670	    -11.94923712	     -2.05594753	     -0.73598120	      0.70251352	      0.90199134	      0.01039734	     44.49357291	      0.42270845	      5.67929545	     52.14242726	      0.91005704	     27.34719099	    -12.50212267	     -7.49999987	     46.71976359	     -3.31428302	      2.80517269	     57.20916035	      0.99848821	     21.33241371	    -20.12019977	     -7.49999987	     -5.65361335	      3.30552380	     -1.64037740	     45.95336524	    -15.94718553	     22.74415642	     93.38428821	     90.74478792	     40.27924624	    -22.58389330	     19.95654663	    102.72754740	     83.47172848
      4.53333330	    -11.68893563	     -1.80509239	     -0.91581764	      0.70678938	      0.92235199	      0.01067467	     41.64392922	     -0.23161933	      5.13239645	     47.39168950	      0.82714102	     24.32502836	    -11.55514876	     -7.49999987	     43.26520240	     -3.21042522	      2.15397610	     51.87662439	      0.90541790	     19.02252326	    -19.92527731	     -7.49999987	     -4.71196586	      2.93994343	     -1.18362126	     46.21292872	    -16.79842022	     23.77497233	     95.31983371	     89.98228080	     38.97993194	    -22.94121083	     18.88569692	    104.48672496	     82.78046294
      4.55000000	    -11.13945429	     -1.51108176	     -1.10145308	      0.70996822	      0.94339952	      0.01136563	     38.12761030	     -0.78780783	      4.53886076	     41.94306814	      0.73204464	     21.30095410	    -10.69501562	     -7.49999987	     39.13333546	     -3.17180522	      1.31205699	     45.98712022	      0.80262666	     16.47077708	    -19.76411261	     -7.49999987	     -3.92693000	      2.42359223	     -0.80949475	     46.41325635	    -16.81297670	     23.88231595	     95.56501785	     89.75871422	     37.66142300	    -22.91918666	     17.84843728	    105.15116163	     82.67841125
      4.56666670	    -10.41542579	     -1.16490657	     -1.22741139	      0.71375969	      0.96370438	      0.01237148	     33.99716742	     -1.41691141	      3.66865481	     35.72583563	      0.62353346	     17.92575459	     -9.49432435	     -7.49999987	     34.43914816	     -3.08510829	      0.26058510	     39.08878454	      0.68222799	     13.68350602	    -19.02802872	     -7.49999987	     -3.46050500	      1.81662674	     -0.32921175	     46.54884726	    -16.77879155	     23.88198855	     95.26159575	     90.32006660	     36.30639632	    -22.90279357	     17.01044371	    105.96182412	     83.10459415
      4.58333330	     -9.67703004	     -0.88468184	     -1.27547285	      0.72070656	      0.97526322	      0.01336710	     29.79390347	     -2.03031128	      2.21772012	     29.66637418	      0.51777591	     15.09787754	     -7.52170471	     -7.49999987	     29.93136518	     -3.08824084	     -1.24946560	     32.61141320	      0.56917653	     11.15774127	    -18.58082329	     -7.49999987	     -2.81139809	      1.51232655	     -0.31952439	     47.78466581	    -16.40161508	     25.13037676	     94.99262792	     91.15721588	     34.00428112	    -23.53102781	     15.54583823	    107.96305026	     81.81833177
      4.60000000	     -8.63052485	     -0.59764918	     -1.64216637	      0.72363774	      0.99270255	      0.01382285	     25.39881777	     -2.43714783	      0.85420634	     23.85758529	      0.41639341	     12.70198429	     -5.44559902	     -7.49999987	     25.31579083	     -3.09740844	     -2.97488815	     26.61574516	      0.46453239	      9.73350919	    -15.95143865	     -7.49999987	     -2.48816424	      0.93647232	      0.51546451	     47.80335936	    -16.87028530	     25.62846808	     95.42891190	     91.40956023	     32.74780278	    -23.56899043	     14.95771152	    108.50918515	     82.40874092
      4.61666670	     -7.31298629	     -0.36703476	     -1.95588375	      0.72898116	      1.00882266	      0.01371468	     20.86392231	     -2.78936683	     -0.82122142	     18.41108802	      0.32133410	     10.54540225	     -2.77731619	     -7.49999987	     20.63914616	     -2.96606650	     -4.71417438	     21.07709684	      0.36786474	      7.86302447	    -13.21469169	     -7.49999987	     -2.42405094	      0.41791820	      0.81432116	     47.42447290	    -17.31874131	     26.31692630	     96.67793539	     91.13974387	     31.11054586	    -23.85827411	     13.97528948	    109.29600575	     81.85024942
      4.63333330	     -6.17142692	     -0.16584158	     -2.24344348	      0.73318427	      1.01609772	      0.01457809	     17.06531390	     -3.01214281	     -2.41160352	     14.11631264	      0.24637613	      9.02365506	     -0.56295103	     -7.49999987	     16.69291163	     -2.79137702	     -6.75209119	     16.65337489	      0.29065622	      6.72640318	    -10.25409940	     -7.49999987	     -2.17384595	     -0.05901613	      1.19570216	     47.49673453	    -17.75712448	     26.97330025	     97.74698591	     91.30374992	     29.73815326	    -24.41216184	     13.03595903	    110.39056966	     81.24323928
      4.65000000	     -5.55936872	      0.02735853	     -2.50821683	      0.73640478	      1.02246456	      0.01430232	     14.41886941	     -3.23859744	     -3.65162645	     10.98942582	      0.19180166	      7.65905096	      1.70460425	     -7.49999987	     13.84699271	     -2.50337151	     -8.92300295	     12.97701357	      0.22649161	      5.87996286	     -7.62446821	     -7.49999987	     -1.87370730	     -0.42544125	      1.40161171	     47.34755522	    -18.23665232	     27.36726641	     99.84182588	     91.39860238	     27.78100354	    -25.09752030	     11.81711012	    112.15235738	     80.68271841
      4.66666670	     -5.02444231	      0.02006664	     -2.70083640	      0.74037481	      1.02458320	      0.01486496	     12.31684019	     -3.26302251	     -4.90946996	      8.61288423	      0.15032319	      7.04749037	      3.83754969	     -7.49999987	     11.50426378	     -2.40067687	    -11.15162973	     10.09497401	      0.17619053	      5.89335944	     -4.66744756	     -7.49999987	     -1.53382341	     -0.48666644	      1.16696281	     47.59754007	    -18.34164666	     28.08826041	    101.48009859	     91.28569407	     25.40387291	    -26.18693734	     10.17974391	    114.29023967	     79.35671901
      4.68333330	     -4.61690170	     -0.06485670	     -2.62863732	      0.74500990	      1.02525960	      0.01479850	     10.63836446	     -3.19610467	     -5.98010227	      6.83447366	      0.11928407	      6.45120696	      5.29450624	     -7.49999987	      9.66350301	     -2.30224975	    -12.64381670	      7.81398839	      0.13637983	      5.68441253	     -2.54690700	     -7.49999987	     -1.19065865	     -0.47864229	      1.25806614	     47.28808763	    -18.86440030	     28.17610873	    103.83531565	     90.59948826	     23.44751325	    -27.03399315	      9.15543006	    116.27045241	     78.08875265
      4.70000000	     -4.23480598	     -0.27456909	     -2.65360012	      0.74861869	      1.02328261	      0.01422555	      9.30120506	     -2.95666796	     -6.74339963	      5.49388411	      0.09588637	      6.20441729	      6.26592042	     -7.49999987	      8.04932501	     -2.36548474	    -13.68610728	      6.15981754	      0.10750910	      6.35663186	     -0.56169622	     -7.49999987	     -0.98991728	     -0.37441803	      1.60631983	     46.85569663	    -19.47986599	     27.69320662	    106.63910431	     90.80017433	     22.05284316	    -27.50014197	      8.33028845	    118.47411548	     77.91900046
